<?xml version="1.0" encoding="utf-8"?>
<!-- Generator: Adobe Illustrator 24.2.0, SVG Export Plug-In . SVG Version: 6.00 Build 0)  -->
<svg version="1.1" xmlns="http://www.w3.org/2000/svg" xmlns:xlink="http://www.w3.org/1999/xlink" x="0px" y="0px"
	 viewBox="0 0 700 700" style="enable-background:new 0 0 700 700;" xml:space="preserve">
<style type="text/css">
	.st0{display:none;}
	.st1{display:inline;opacity:0.7;fill:#A3BCE8;}
	.st2{display:inline;opacity:0.6;fill:#15E8E3;}
	.st3{fill:#EEEFFF;}
	.st4{fill:#34438A;}
	.st5{fill:#A3BCE8;}
	.st6{fill:#06CEAC;}
	.st7{fill:#1B8E6D;}
	.st8{fill:#3D549F;}
	.st9{fill:#4964B3;}
	.st10{fill:#D8A3E5;}
	.st11{fill:#40569E;}
	.st12{fill:none;stroke:#008B13;stroke-miterlimit:10;}
	.st13{fill:#FFFFFF;}
	.st14{fill:#EA805D;}
	.st15{fill:#3D2945;}
	.st16{fill:#B6A8A2;}
	.st17{fill:#EBFDFE;}
	.st18{fill:#000205;}
	.st19{fill:#4CB8EB;}
	.st20{fill:#FFFDF9;}
	.st21{fill:#EC8251;}
	.st22{fill:#33448C;}
	.st23{fill:#3D519C;}
	.st24{fill:#1AB3FF;}
	.st25{fill:#FCFFF4;}
	.st26{font-family:'ComicSansMS-Bold';}
	.st27{font-size:23.1385px;}
	.st28{fill:#000049;stroke:#000000;stroke-miterlimit:10;}
	.st29{fill:#FFFFFF;stroke:#000000;stroke-miterlimit:10;}
	.st30{font-family:'MyriadPro-Regular';}
	.st31{font-size:9.1896px;}
	.st32{font-size:10.2697px;}
	.st33{font-size:8.6288px;}
	.st34{font-size:7.5392px;}
	.st35{fill:#FFFFFF;stroke:#000000;stroke-width:3;stroke-miterlimit:10;}
	.st36{fill:#FFFFFF;stroke:#000000;stroke-width:2;stroke-miterlimit:10;}
	.st37{fill:#FFFFFF;stroke:#000000;stroke-width:0.75;stroke-miterlimit:10;}
</style>
<g id="wall" class="st0">
	<polygon class="st1" points="528.28,111.88 528.28,363.92 159.08,371.67 160.72,111.87 	"/>
	<path class="st2" d="M528.5,115.27c0,0,20.08-10.58,0-18.18l-366.46-0.2c1.18-1.87-21.99,10.27-1.34,18.38H528.5z"/>
</g>
<g id="Layer_3">
	<path d="M349.66,247.99c0,0-26.69,3.76-25.01,20.26c1.67,16.5,0,0,0,0l0.31,23.27c0,0-4.31-1.29-5.16,27.83"/>
	<path d="M319.79,319.34c0,0,7.32,10.9,13.94,14.61s0,0,0,0h4.96l-15.8-15.92"/>
	<path d="M362.23,249.35c0,0,22.64-1.46,23.96,11.97c1.33,13.42,0,0,0,0s4.77,37.95,6.38,37.8"/>
</g>
<g id="Layer_1">
	<ellipse class="st3" cx="349.69" cy="522.47" rx="247.87" ry="62.38"/>
	<path class="st4" d="M242.01,371.3h-20.04C221.97,371.3,232.92,364.97,242.01,371.3z"/>
	<path class="st4" d="M242.01,405.05h-20.04C221.97,405.05,232.92,398.72,242.01,405.05z"/>
	
		<rect x="192.6" y="357.01" transform="matrix(-1 -4.050239e-11 4.050239e-11 -1 460.1206 718.4796)" class="st5" width="74.91" height="4.45"/>
	
		<rect x="192.6" y="394.8" transform="matrix(-1 -4.045398e-11 4.045398e-11 -1 460.1206 792.5803)" class="st5" width="74.91" height="2.98"/>
	
		<rect x="258.45" y="451.5" transform="matrix(-1 -4.046287e-11 4.046287e-11 -1 787.0685 912.4982)" class="st4" width="270.18" height="9.49"/>
	<polygon class="st6" points="191.41,419.11 266.32,419.11 265.79,266.87 190.88,266.87 	"/>
	<polygon class="st7" points="191.75,266.87 159.71,266.87 159.08,393.24 191.75,393.24 	"/>
	<path class="st8" d="M259.17,340.19l-99.9,1.86c0,0-1.31,173.86-0.07,174.6c1.24,0.74,99.97,0,99.97,0V340.19z"/>
	<path class="st4" d="M240.88,312.59h-20.04C220.84,312.59,231.79,306.63,240.88,312.59z"/>
	
		<rect x="258.45" y="340.19" transform="matrix(-1 -4.046287e-11 4.046287e-11 -1 787.0685 838.2269)" class="st9" width="270.18" height="157.85"/>
	
		<rect x="258.45" y="415.2" transform="matrix(-1 -4.046287e-11 4.046287e-11 -1 787.0685 838.2267)" class="st4" width="270.18" height="7.82"/>
	
		<rect x="191.75" y="293.89" transform="matrix(-1 -3.849777e-11 3.849777e-11 -1 457.6392 591.4956)" class="st10" width="74.13" height="3.72"/>
	
		<rect x="258.45" y="498.04" transform="matrix(-1 -4.046642e-11 4.046642e-11 -1 775.0882 1014.6911)" class="st11" width="258.2" height="18.61"/>
	<path class="st12" d="M488.69,280.13"/>
	<path class="st12" d="M476.85,321.08"/>
	<path d="M459.63,321.08h15.95c0,0,16.89-43.06,14.62-43.62h-73.95c0,0-11.98,40.02-11.98,42.81l35.53,0.81v19.11h19.83
		C459.63,340.19,459.43,323.37,459.63,321.08z"/>
	<path class="st13" d="M415.84,278.84c0,0-0.55-3.8-3.17-1.38l-10.88,38.66c0,0,1.52,4.24,3.17,2.38L415.84,278.84z"/>
	<path class="st14" d="M374.53,217.33l-0.69,18.12c0,0-2.48,7.45-9.91,7.69c0,0-7.44,1.12-11.7-8.56l-3.03,0.37
		c0.09,0.01-1.3,1.21-4.32-6.26c-0.01-0.04,0.01-0.07,0.03-0.1c0.15-0.32-2.33-4.96,6.63-5.67c0,0-3.17-21.72,11.15-20.6
		C362.69,202.32,376.6,201.08,374.53,217.33z"/>
	<ellipse class="st15" cx="360.32" cy="224.83" rx="1.96" ry="3.77"/>
	<ellipse class="st15" cx="369.44" cy="224.83" rx="1.96" ry="3.77"/>
	<path class="st16" d="M365.86,222.73v5.49c0,0-0.52-0.6-0.8,0c0,0-0.36-0.6-0.59,0v-5.33C364.46,222.89,365.37,223.1,365.86,222.73
		z"/>
	<path class="st17" d="M369.44,233.53l-9.12,0.2C360.32,233.73,365.87,239.8,369.44,233.53z"/>
	<path class="st18" d="M372.88,218.54h1.86v-9.87c0,0-3.36-9.12-9.58-8.75l-4.83-0.01v-3.9c0,0-2.52-4.75-10.17-4.56
		c0,0-12.08,1.86-14.36,20.01c0,0-9.19,19.55-9.19,25.97h19.73l2.32-2.49c0,0-6.88-8.7-2.33-10.64l5.21-1.39l0.28-4.19l2.79,0.09
		c0,0,1.45-9.12,8.99-10.61C363.58,208.21,374.22,207.47,372.88,218.54z"/>
	<path class="st14" d="M352.22,234.58l-2.74,0.36l0.26,19.24c0,0,8.06,3.86,7.02,10.61h5.32l0.2-21.67
		C362.29,243.13,355.48,242.48,352.22,234.58z"/>
	<path class="st19" d="M349.69,250.1h-1.7v10.14c0,0,4.54,1.4,4.96,12.84l0.1,56.59h3.61v6.55h10.65v-6.23l2.25,0.06l-0.13-67.2
		h-1.52l-0.21-4.84c0,0-0.1-5.58-1.86-5.68l-3.57,0.19l-0.2,12.29h-5.32c0,0,1.76-5.86-7.02-10.61L349.69,250.1z"/>
	<path class="st20" d="M362.29,252.51l-0.06-3.16c0,0,23.87-0.62,24.28,14.52c0,0,1.24,21.84,6.06,35.24c0,0-12.67-3.6-11.02,2.73
		c0,0-8.4,18.86-8.68,27.55l-3.31,0.35l-0.13-66.9h-1.52C368.71,261.8,367.63,250.5,362.29,252.51z"/>
	<path class="st20" d="M349.66,247.99l0.03,2.11h-1.7v10.14c0,0,5.07,2.24,4.72,9.73l0.55,60.1h-3.51c0,0-15.08-24.2-19.69-25.13
		c0,0-10.16-3.01-7.16,13.09c0,0,16.73,12.01,15.8,15.92h-4.96c0,0-11.77-10.24-13.94-14.61c0,0,2.07-25.41,3.72-26.34l1.45-1.49
		l-0.31-23.27c0,0-0.31-14.24,19.42-18.15L349.66,247.99z"/>
	<path class="st21" d="M356.66,335.91h-12.29c0,0-0.6-4.31-5.92-3.39c0,0-6.75-9.57-15.56-14.48c0,0-2.88-16.34,8.41-12.48
		c0,0,15.69,17.51,18.45,24.52l6.92,0.19V335.91z"/>
	<path class="st21" d="M372.88,329.39l-5.56,0.59v5.92h12.79l11.15-27.08c0,0,5.09-11.88-3.65-10.64c0,0-5.78-1.49-6.43,4.53
		C381.17,302.71,371.64,326.41,372.88,329.39z"/>
	<rect x="333.36" y="336.22" class="st22" width="59.63" height="2.17"/>
	<polygon class="st23" points="392.73,340.19 392.57,338.39 333.36,338.39 333.36,340.19 	"/>
	<path class="st24" d="M447.58,205.42h42.01c2.85,0,5.16-2.31,5.16-5.16v-48.25c0-2.85-2.31-5.16-5.16-5.16h-42.01
		c-2.85,0-5.16,2.31-5.16,5.16v48.25C442.42,203.11,444.73,205.42,447.58,205.42z"/>
	<path class="st25" d="M473.3,179.63h8.05c0,0,10.45-4.03,0-8.69h-8.05v-7.88c0,0-3.25-6.33-7.49,0v8.07h-7.06c0,0-8.97,4.53,0,8.5
		h7.2l0.07,9.49c0,0,4.31,6.52,7.41,0L473.3,179.63z"/>
	
		<rect x="191.75" y="322.13" transform="matrix(-1 -3.844492e-11 3.844492e-11 -1 457.7411 647.9818)" class="st10" width="74.24" height="3.72"/>
	<text transform="matrix(1.2206 0 0 1 310.9114 400.192)" class="st13 st26 st27">RECEPTION</text>
	
		<rect x="257.48" y="466.73" transform="matrix(-1 -4.046287e-11 4.046287e-11 -1 785.1406 941.2724)" class="st4" width="270.18" height="7.82"/>
	
		<rect x="257.48" y="358.36" transform="matrix(-1 -4.044954e-11 4.044954e-11 -1 785.1406 724.545)" class="st4" width="270.18" height="7.82"/>
	<circle class="st28" cx="234.07" cy="158.49" r="39.84"/>
	<circle class="st29" cx="234.07" cy="158.49" r="33.97"/>
	<text transform="matrix(0.8771 0 0 1 230.2463 133.7422)" class="st30 st31">12</text>
	<text transform="matrix(1 0 0 1 261.6985 161.7295)" class="st30 st32">3</text>
	<text transform="matrix(1 0 0 1 231.8743 191.125)" class="st30 st33">6</text>
	<text transform="matrix(1.0719 0 0 1 201.0784 161.0586)" class="st30 st34">9</text>
	<line class="st35" x1="234.07" y1="158.49" x2="257.09" y2="166.1"/>
	<line class="st36" x1="234.07" y1="158.49" x2="216.47" y2="183.8"/>
	<line class="st37" x1="234.07" y1="158.49" x2="211.86" y2="133.89"/>
	<path class="st4" d="M240.88,336.64h-20.04C220.84,336.64,231.79,330.68,240.88,336.64z"/>
	<path class="st4" d="M240.88,282.34h-20.04C220.84,282.34,231.79,276.38,240.88,282.34z"/>
</g>
</svg>
